<mxfile host="app.diagrams.net" modified="2021-08-03T11:06:57.238Z" agent="5.0 (Macintosh; Intel Mac OS X 10_15_7) AppleWebKit/537.36 (KHTML, like Gecko) Chrome/92.0.4515.107 Safari/537.36" etag="0DVKsOXU7ygcd9KElZRn" version="14.9.3" type="github">
  <diagram id="dNuCdF-38DyPAIg2h89m" name="Page-1">
    <mxGraphModel dx="2066" dy="1129" grid="1" gridSize="10" guides="1" tooltips="1" connect="1" arrows="1" fold="1" page="1" pageScale="1" pageWidth="827" pageHeight="1169" math="0" shadow="0">
      <root>
        <mxCell id="0" />
        <mxCell id="1" parent="0" />
        <mxCell id="KND64-zs2ue5YcPNRiuv-1" value="" style="curved=1;endArrow=classic;html=1;" edge="1" parent="1">
          <mxGeometry width="50" height="50" relative="1" as="geometry">
            <mxPoint x="360" y="30" as="sourcePoint" />
            <mxPoint x="360" y="160" as="targetPoint" />
            <Array as="points">
              <mxPoint x="360" y="90" />
            </Array>
          </mxGeometry>
        </mxCell>
        <mxCell id="KND64-zs2ue5YcPNRiuv-2" value="&lt;h1&gt;Ad Proxy&lt;/h1&gt;" style="text;html=1;strokeColor=none;fillColor=none;align=center;verticalAlign=middle;whiteSpace=wrap;rounded=0;" vertex="1" parent="1">
          <mxGeometry x="380" y="40" width="90" height="40" as="geometry" />
        </mxCell>
        <mxCell id="KND64-zs2ue5YcPNRiuv-3" value="&lt;font style=&quot;font-size: 14px&quot;&gt;submission_params&lt;br&gt;token&lt;br&gt;user_id&lt;br&gt;connection_id&lt;/font&gt;" style="text;html=1;strokeColor=none;fillColor=none;align=center;verticalAlign=middle;whiteSpace=wrap;rounded=0;" vertex="1" parent="1">
          <mxGeometry x="530" y="50" width="40" height="20" as="geometry" />
        </mxCell>
        <mxCell id="KND64-zs2ue5YcPNRiuv-4" value="&lt;font&gt;&lt;span style=&quot;font-size: 18px&quot;&gt;Playground::Submission&lt;/span&gt;&lt;br&gt;&lt;br&gt;&lt;font style=&quot;font-size: 14px&quot;&gt;&lt;b&gt;has_one&amp;nbsp;&lt;/b&gt;Playground::Credentials&lt;br&gt;&lt;/font&gt;&lt;br&gt;&lt;div style=&quot;font-size: 13px ; color: rgb(171 , 178 , 191) ; background-color: rgb(40 , 44 , 52) ; font-family: &amp;#34;menlo&amp;#34; , &amp;#34;monaco&amp;#34; , &amp;#34;courier new&amp;#34; , monospace ; line-height: 20px&quot;&gt;&lt;span style=&quot;color: #e06c75&quot;&gt;belongs_to&lt;/span&gt; &lt;span style=&quot;color: #d19a66&quot;&gt;:&lt;/span&gt;&lt;span style=&quot;color: #56b6c2&quot;&gt;submittable&lt;/span&gt;&lt;/div&gt;&lt;/font&gt;" style="whiteSpace=wrap;html=1;aspect=fixed;" vertex="1" parent="1">
          <mxGeometry x="230" y="160" width="270" height="270" as="geometry" />
        </mxCell>
        <mxCell id="KND64-zs2ue5YcPNRiuv-5" value="" style="curved=1;endArrow=classic;html=1;exitX=0.5;exitY=1;exitDx=0;exitDy=0;entryX=0.5;entryY=0;entryDx=0;entryDy=0;" edge="1" parent="1" source="KND64-zs2ue5YcPNRiuv-4" target="KND64-zs2ue5YcPNRiuv-6">
          <mxGeometry width="50" height="50" relative="1" as="geometry">
            <mxPoint x="364.5" y="460" as="sourcePoint" />
            <mxPoint x="364.5" y="570" as="targetPoint" />
            <Array as="points">
              <mxPoint x="364.5" y="520" />
            </Array>
          </mxGeometry>
        </mxCell>
        <mxCell id="KND64-zs2ue5YcPNRiuv-6" value="&lt;font&gt;&lt;span style=&quot;font-size: 18px&quot;&gt;Playground::Credentials&lt;/span&gt;&lt;br&gt;&lt;br&gt;&lt;font style=&quot;font-size: 14px&quot;&gt;&lt;b&gt;belongs_to&amp;nbsp;&lt;/b&gt;Playground::Submission&lt;br&gt;&lt;/font&gt;&lt;br&gt;&lt;span style=&quot;font-size: 18px&quot;&gt;&amp;nbsp;pg_user_id&lt;/span&gt;&lt;br&gt;&lt;span style=&quot;font-size: 18px&quot;&gt;pg_connection_id&lt;/span&gt;&lt;br&gt;&lt;span style=&quot;font-size: 18px&quot;&gt;submission_id&lt;/span&gt;&lt;br&gt;&lt;/font&gt;" style="whiteSpace=wrap;html=1;aspect=fixed;" vertex="1" parent="1">
          <mxGeometry x="230" y="520" width="270" height="270" as="geometry" />
        </mxCell>
        <mxCell id="KND64-zs2ue5YcPNRiuv-7" value="&lt;font style=&quot;font-size: 18px&quot;&gt;Facebook::Creative&lt;br&gt;&lt;br&gt;&lt;div style=&quot;color: rgb(171 , 178 , 191) ; background-color: rgb(40 , 44 , 52) ; font-family: &amp;#34;menlo&amp;#34; , &amp;#34;monaco&amp;#34; , &amp;#34;courier new&amp;#34; , monospace ; font-size: 13px ; line-height: 20px&quot;&gt;&lt;span style=&quot;color: #e06c75&quot;&gt;has_one&lt;/span&gt; &lt;span style=&quot;color: #d19a66&quot;&gt;:&lt;/span&gt;&lt;span style=&quot;color: #56b6c2&quot;&gt;submission&lt;/span&gt;, &lt;span style=&quot;color: #d19a66&quot;&gt;as:&lt;/span&gt; &lt;span style=&quot;color: #d19a66&quot;&gt;:&lt;/span&gt;&lt;span style=&quot;color: #56b6c2&quot;&gt;submittable&lt;/span&gt;&lt;/div&gt;&lt;div style=&quot;color: rgb(171 , 178 , 191) ; background-color: rgb(40 , 44 , 52) ; font-family: &amp;#34;menlo&amp;#34; , &amp;#34;monaco&amp;#34; , &amp;#34;courier new&amp;#34; , monospace ; font-size: 13px ; line-height: 20px&quot;&gt;&lt;span style=&quot;color: rgb(86 , 182 , 194)&quot;&gt;belongs_to :ad_account&lt;/span&gt;&lt;/div&gt;&lt;/font&gt;" style="whiteSpace=wrap;html=1;aspect=fixed;" vertex="1" parent="1">
          <mxGeometry x="760" y="160" width="280" height="280" as="geometry" />
        </mxCell>
        <mxCell id="KND64-zs2ue5YcPNRiuv-8" value="" style="endArrow=classic;html=1;entryX=0;entryY=0.5;entryDx=0;entryDy=0;" edge="1" parent="1" target="KND64-zs2ue5YcPNRiuv-7">
          <mxGeometry width="50" height="50" relative="1" as="geometry">
            <mxPoint x="500" y="300" as="sourcePoint" />
            <mxPoint x="430" y="370" as="targetPoint" />
          </mxGeometry>
        </mxCell>
        <mxCell id="KND64-zs2ue5YcPNRiuv-9" value="&lt;font style=&quot;font-size: 18px&quot;&gt;Facebook::AdAccount&lt;br&gt;&lt;br&gt;&lt;div style=&quot;color: rgb(171 , 178 , 191) ; background-color: rgb(40 , 44 , 52) ; font-family: &amp;#34;menlo&amp;#34; , &amp;#34;monaco&amp;#34; , &amp;#34;courier new&amp;#34; , monospace ; font-size: 13px ; line-height: 20px&quot;&gt;&lt;span style=&quot;color: #56b6c2&quot;&gt;name&lt;/span&gt;&lt;/div&gt;&lt;div style=&quot;color: rgb(171 , 178 , 191) ; background-color: rgb(40 , 44 , 52) ; font-family: &amp;#34;menlo&amp;#34; , &amp;#34;monaco&amp;#34; , &amp;#34;courier new&amp;#34; , monospace ; font-size: 13px ; line-height: 20px&quot;&gt;&lt;div style=&quot;line-height: 20px&quot;&gt;&lt;span style=&quot;color: #56b6c2&quot;&gt;ad_account_id&lt;/span&gt;&lt;/div&gt;&lt;/div&gt;&lt;/font&gt;" style="whiteSpace=wrap;html=1;aspect=fixed;" vertex="1" parent="1">
          <mxGeometry x="760" y="522.5" width="265" height="265" as="geometry" />
        </mxCell>
      </root>
    </mxGraphModel>
  </diagram>
</mxfile>
